<?xml version="1.0" encoding="UTF-8" standalone="no"?>
<!-- Created with Inkscape (http://www.inkscape.org/) -->

<svg
   width="40.752098mm"
   height="40.565708mm"
   viewBox="0 0 154.02368 153.31921"
   version="1.1"
   id="svg1"
   xml:space="preserve"
   inkscape:version="1.3 (0e150ed6c4, 2023-07-21)"
   sodipodi:docname="circulos.svg"
   xmlns:inkscape="http://www.inkscape.org/namespaces/inkscape"
   xmlns:sodipodi="http://sodipodi.sourceforge.net/DTD/sodipodi-0.dtd"
   xmlns="http://www.w3.org/2000/svg"
   xmlns:svg="http://www.w3.org/2000/svg"><sodipodi:namedview
     id="namedview1"
     pagecolor="#ffffff"
     bordercolor="#000000"
     borderopacity="0.25"
     inkscape:showpageshadow="2"
     inkscape:pageopacity="0.0"
     inkscape:pagecheckerboard="0"
     inkscape:deskcolor="#d1d1d1"
     inkscape:document-units="mm"
     inkscape:zoom="1.5055415"
     inkscape:cx="851.52085"
     inkscape:cy="572.88357"
     inkscape:window-width="1920"
     inkscape:window-height="1027"
     inkscape:window-x="1912"
     inkscape:window-y="-8"
     inkscape:window-maximized="1"
     inkscape:current-layer="layer1" /><defs
     id="defs1" /><g
     inkscape:label="Camada 1"
     inkscape:groupmode="layer"
     id="layer1"
     transform="translate(-1051.9779,-529.79839)"><ellipse
       style="fill:#ffffff;stroke-width:1.01473"
       id="path2-5"
       cx="1128.9897"
       cy="606.45801"
       rx="77.011848"
       ry="76.659599" /><g
       id="g3"
       transform="matrix(4.2933887,0,0,4.1826866,1080.886,551.57229)"><path
         d="M 0,0 H 24 V 24 H 0 Z"
         fill="none"
         id="path1-5" /><path
         d="M 12,7 V 3 H 2 V 21 H 22 V 7 Z M 6,19 H 4 V 17 H 6 Z M 6,15 H 4 V 13 H 6 Z M 6,11 H 4 V 9 H 6 Z M 6,7 H 4 V 5 h 2 z m 4,12 H 8 v -2 h 2 z m 0,-4 H 8 v -2 h 2 z m 0,-4 H 8 V 9 h 2 z M 10,7 H 8 V 5 h 2 z m 10,12 h -8 v -2 h 2 v -2 h -2 v -2 h 2 V 11 H 12 V 9 h 8 z m -2,-8 h -2 v 2 h 2 z m 0,4 h -2 v 2 h 2 z"
         id="path2-0" /></g><ellipse
       style="fill:none;stroke:#000000;stroke-width:10.4829;stroke-dasharray:none;stroke-opacity:1"
       id="path3"
       cx="1129.4939"
       cy="607.75476"
       rx="63.794022"
       ry="65.454552" /></g></svg>
