<?xml version="1.0" encoding="UTF-8" standalone="no"?>
<!-- Created with Inkscape (http://www.inkscape.org/) -->

<svg
   width="40.752098mm"
   height="40.565708mm"
   viewBox="0 0 154.02368 153.31921"
   version="1.1"
   id="svg1"
   xml:space="preserve"
   inkscape:version="1.3 (0e150ed6c4, 2023-07-21)"
   sodipodi:docname="circulos.svg"
   xmlns:inkscape="http://www.inkscape.org/namespaces/inkscape"
   xmlns:sodipodi="http://sodipodi.sourceforge.net/DTD/sodipodi-0.dtd"
   xmlns="http://www.w3.org/2000/svg"
   xmlns:svg="http://www.w3.org/2000/svg"><sodipodi:namedview
     id="namedview1"
     pagecolor="#ffffff"
     bordercolor="#000000"
     borderopacity="0.25"
     inkscape:showpageshadow="2"
     inkscape:pageopacity="0.0"
     inkscape:pagecheckerboard="0"
     inkscape:deskcolor="#d1d1d1"
     inkscape:document-units="mm"
     inkscape:zoom="1.5055415"
     inkscape:cx="851.52085"
     inkscape:cy="572.88357"
     inkscape:window-width="1920"
     inkscape:window-height="1027"
     inkscape:window-x="1912"
     inkscape:window-y="-8"
     inkscape:window-maximized="1"
     inkscape:current-layer="layer1" /><defs
     id="defs1" /><g
     inkscape:label="Camada 1"
     inkscape:groupmode="layer"
     id="layer1"
     transform="translate(-809.67543,-413.1404)"><ellipse
       style="fill:#ffffff;stroke-width:1.01473"
       id="path2"
       cx="886.68726"
       cy="489.79999"
       rx="77.011848"
       ry="76.659599"
       inkscape:export-filename="relogio-black.svg"
       inkscape:export-xdpi="62.328079"
       inkscape:export-ydpi="62.328079" /><g
       id="g1"
       transform="translate(817.15036,419.60271)"><g
         id="Livello_5"><path
           d="m 113.326,70.191 c 0,-2.97 -2.377,-5.376 -5.307,-5.376 H 75.543 V 32.387 32.386 c 0,-2.98 -2.418,-5.397 -5.396,-5.397 -2.98,0 -5.398,2.417 -5.398,5.397 V 70.17 c 0,2.981 2.418,5.398 5.398,5.398 h 37.875 c 2.927,0 5.304,-2.407 5.304,-5.377 m 16.207,-0.034 c 0,32.798 -26.584,59.386 -59.375,59.386 -32.793,0 -59.375,-26.588 -59.375,-59.386 0,-32.798 26.582,-59.386 59.375,-59.386 32.791,0 59.375,26.588 59.375,59.386 m 10.781,0 C 140.314,31.41 108.904,0 70.158,0 31.41,0 0,31.41 0,70.157 c 0,38.747 31.41,70.157 70.158,70.157 38.746,0 70.156,-31.41 70.156,-70.157"
           id="path1" /></g><g
         id="Livello_1_1_" /></g></g></svg>
