<svg xmlns="http://www.w3.org/2000/svg" xmlns:xlink="http://www.w3.org/1999/xlink" width="200" zoomAndPan="magnify" viewBox="0 0 150 112.499997" height="150" preserveAspectRatio="xMidYMid meet" version="1.0"><defs><g/><clipPath id="1d7b9c91bd"><path d="M 0.332031 15.875 L 149.667969 15.875 L 149.667969 31.542969 L 0.332031 31.542969 Z M 0.332031 15.875 " clip-rule="nonzero"/></clipPath><clipPath id="d35492cbed"><path d="M 1.230469 73.28125 L 148.554688 73.28125 L 148.554688 111.996094 L 1.230469 111.996094 Z M 1.230469 73.28125 " clip-rule="nonzero"/></clipPath></defs><g fill="#000000" fill-opacity="1"><g transform="translate(39.681123, 84.455777)"><g><path d="M 11.097656 -37.941406 C 11.214844 -37.941406 11.214844 -37.941406 11.335938 -37.941406 C 11.335938 -37.941406 11.453125 -37.941406 11.453125 -37.941406 C 12.527344 -37.941406 13.484375 -37.941406 14.554688 -37.941406 C 14.796875 -38.0625 14.914062 -38.0625 15.152344 -38.0625 C 15.273438 -38.0625 15.390625 -37.941406 15.511719 -37.941406 C 15.75 -37.703125 16.109375 -37.464844 16.347656 -37.226562 C 16.585938 -36.988281 16.703125 -36.75 16.824219 -36.511719 C 16.941406 -36.273438 17.179688 -36.035156 17.179688 -35.792969 C 17.300781 -35.554688 17.300781 -35.199219 17.421875 -34.960938 C 17.539062 -34.601562 17.539062 -34.125 17.539062 -33.765625 C 17.539062 -33.410156 17.539062 -33.167969 17.539062 -32.8125 C 17.539062 -31.617188 17.421875 -30.542969 17.539062 -29.351562 C 17.539062 -28.875 17.539062 -28.515625 17.539062 -28.039062 C 17.539062 -26.609375 17.539062 -25.175781 17.539062 -23.625 C 17.421875 -22.671875 17.539062 -21.714844 17.539062 -20.640625 C 17.539062 -20.046875 17.539062 -19.566406 17.539062 -18.972656 C 17.539062 -18.253906 17.421875 -17.539062 17.421875 -16.703125 C 17.421875 -16.464844 17.421875 -16.226562 17.421875 -15.988281 C 17.421875 -15.035156 17.421875 -13.960938 17.421875 -12.886719 C 17.539062 -12.410156 17.539062 -11.8125 17.539062 -11.214844 C 17.539062 -9.425781 17.539062 -7.515625 17.539062 -5.609375 C 17.421875 -3.699219 17.539062 -1.789062 17.539062 0.121094 C 17.539062 0.238281 17.539062 0.238281 17.539062 0.359375 C 17.898438 0.359375 18.253906 0.359375 18.613281 0.359375 C 19.449219 0.359375 20.402344 0.359375 21.238281 0.359375 C 21.953125 0.238281 22.671875 0.359375 23.386719 0.238281 C 23.625 0.238281 23.742188 0.238281 23.984375 0.238281 C 23.984375 0.121094 23.984375 0.121094 23.984375 0 C 23.984375 -0.121094 23.984375 -0.238281 23.984375 -0.359375 C 24.101562 -0.835938 24.101562 -1.433594 24.101562 -1.910156 C 24.101562 -2.746094 24.101562 -3.578125 24.101562 -4.296875 C 23.984375 -4.890625 24.101562 -5.609375 23.984375 -6.203125 C 23.984375 -6.921875 23.984375 -7.636719 23.984375 -8.351562 C 23.984375 -8.828125 24.101562 -9.425781 24.101562 -9.902344 C 24.101562 -10.859375 24.101562 -11.8125 24.101562 -12.765625 C 24.101562 -13.125 24.101562 -13.484375 24.101562 -13.839844 C 24.101562 -15.628906 24.101562 -17.421875 24.101562 -19.328125 C 24.101562 -20.761719 23.984375 -22.191406 24.101562 -23.625 C 24.101562 -24.101562 24.101562 -24.699219 24.101562 -25.175781 C 24.101562 -25.535156 24.222656 -25.773438 24.101562 -26.011719 C 24.101562 -27.441406 24.101562 -28.753906 24.101562 -30.066406 C 24.101562 -30.785156 24.222656 -31.5 24.222656 -32.214844 C 24.101562 -32.691406 24.101562 -33.289062 24.101562 -33.765625 C 24.101562 -33.765625 24.101562 -33.886719 24.101562 -33.886719 C 23.984375 -34.242188 23.984375 -34.722656 23.863281 -35.078125 C 23.863281 -35.4375 23.742188 -35.914062 23.742188 -36.273438 C 23.625 -36.75 23.503906 -37.347656 23.386719 -37.824219 C 23.265625 -38.0625 23.148438 -38.300781 23.027344 -38.660156 C 22.789062 -39.253906 22.429688 -39.972656 21.953125 -40.6875 C 21.835938 -40.925781 21.597656 -41.285156 21.476562 -41.523438 C 21.476562 -41.640625 21.597656 -41.761719 21.597656 -41.761719 C 21.953125 -42.238281 22.3125 -42.835938 22.550781 -43.3125 C 22.789062 -43.910156 23.027344 -44.503906 23.265625 -44.980469 C 23.386719 -45.222656 23.503906 -45.578125 23.503906 -45.816406 C 23.742188 -46.414062 23.863281 -47.011719 23.863281 -47.605469 C 23.863281 -47.964844 23.863281 -48.203125 23.984375 -48.441406 C 23.984375 -48.800781 23.984375 -49.15625 24.101562 -49.515625 C 24.101562 -50.46875 23.984375 -51.425781 24.101562 -52.261719 C 24.101562 -53.214844 24.101562 -54.167969 24.101562 -55.003906 C 24.222656 -55.960938 24.222656 -56.792969 24.101562 -57.628906 C 24.101562 -57.988281 24.101562 -58.34375 24.101562 -58.703125 C 24.101562 -59.539062 24.101562 -60.375 24.101562 -61.210938 C 24.222656 -61.449219 24.101562 -61.6875 24.101562 -61.925781 C 24.101562 -62.28125 24.101562 -62.523438 24.101562 -62.878906 C 24.101562 -63.117188 23.984375 -63.355469 23.984375 -63.59375 C 23.984375 -63.714844 23.984375 -63.835938 23.984375 -63.953125 C 23.984375 -64.074219 24.101562 -64.074219 24.101562 -64.191406 C 24.101562 -64.90625 24.101562 -65.625 24.101562 -66.457031 C 24.101562 -68.25 24.101562 -70.039062 24.101562 -71.707031 C 24.101562 -71.828125 24.101562 -71.828125 24.101562 -71.949219 C 24.101562 -72.304688 23.984375 -72.664062 23.984375 -73.019531 C 23.984375 -73.378906 23.863281 -73.738281 23.863281 -74.09375 C 23.742188 -74.574219 23.625 -75.050781 23.503906 -75.527344 C 23.386719 -76.242188 23.148438 -76.839844 22.789062 -77.4375 C 22.550781 -77.914062 22.3125 -78.390625 22.074219 -78.75 C 21.953125 -79.105469 21.714844 -79.34375 21.597656 -79.582031 C 21.359375 -79.703125 21.238281 -79.941406 21.238281 -80.0625 C 21.117188 -80.300781 21 -80.417969 20.878906 -80.539062 C 20.640625 -80.894531 20.285156 -81.136719 20.046875 -81.375 C 19.925781 -81.492188 19.804688 -81.613281 19.6875 -81.730469 C 19.566406 -81.851562 19.449219 -81.851562 19.328125 -81.96875 C 18.851562 -82.207031 18.253906 -82.566406 17.777344 -82.804688 C 17.300781 -82.925781 16.824219 -83.164062 16.347656 -83.164062 C 16.226562 -83.164062 15.988281 -83.164062 15.867188 -83.164062 C 15.511719 -83.28125 15.273438 -83.28125 15.035156 -83.28125 C 14.316406 -83.28125 13.484375 -83.28125 12.765625 -83.402344 C 12.527344 -83.402344 12.171875 -83.28125 11.8125 -83.28125 C 11.453125 -83.28125 10.976562 -83.28125 10.617188 -83.28125 C 9.664062 -83.28125 8.710938 -83.28125 7.753906 -83.28125 C 7.277344 -83.164062 6.800781 -83.28125 6.203125 -83.28125 C 5.847656 -83.164062 5.371094 -83.164062 4.890625 -83.164062 C 4.773438 -83.164062 4.535156 -83.164062 4.414062 -83.164062 C 4.414062 -83.042969 4.296875 -83.042969 4.296875 -82.925781 C 4.296875 -82.328125 4.414062 -81.613281 4.296875 -81.015625 C 4.296875 -80.179688 4.296875 -79.464844 4.296875 -78.628906 C 4.296875 -78.269531 4.296875 -77.914062 4.296875 -77.554688 C 4.296875 -77.316406 4.296875 -77.199219 4.296875 -76.957031 C 4.296875 -76.601562 4.296875 -76.363281 4.296875 -76.125 C 4.296875 -75.886719 4.296875 -75.765625 4.296875 -75.644531 C 4.296875 -75.644531 4.296875 -75.527344 4.296875 -75.527344 C 4.296875 -75.289062 4.296875 -75.167969 4.296875 -74.929688 C 4.296875 -74.453125 4.296875 -73.855469 4.414062 -73.378906 C 4.414062 -73.261719 4.414062 -73.261719 4.414062 -73.261719 C 4.414062 -72.78125 4.414062 -72.425781 4.414062 -71.949219 C 4.414062 -71.589844 4.535156 -71.113281 4.535156 -70.753906 C 4.535156 -70.394531 4.535156 -70.039062 4.535156 -69.679688 C 4.535156 -69.441406 4.535156 -69.324219 4.535156 -69.203125 C 4.535156 -68.605469 4.535156 -68.128906 4.535156 -67.53125 C 4.414062 -66.9375 4.414062 -66.21875 4.414062 -65.625 C 4.414062 -64.3125 4.414062 -63 4.535156 -61.804688 C 4.535156 -60.730469 4.535156 -59.777344 4.535156 -58.824219 C 4.535156 -56.199219 4.535156 -53.691406 4.535156 -51.1875 C 4.535156 -49.875 4.535156 -48.5625 4.535156 -47.367188 C 4.535156 -46.292969 4.535156 -45.339844 4.535156 -44.386719 C 4.535156 -42.953125 4.535156 -41.640625 4.535156 -40.210938 C 4.535156 -38.777344 4.535156 -37.347656 4.535156 -35.914062 C 4.414062 -35.078125 4.535156 -34.242188 4.414062 -33.410156 C 4.414062 -32.929688 4.414062 -32.574219 4.414062 -32.097656 C 4.414062 -31.976562 4.414062 -31.855469 4.414062 -31.738281 C 4.414062 -31.378906 4.414062 -31.023438 4.414062 -30.785156 C 4.296875 -30.1875 4.296875 -29.710938 4.296875 -29.113281 C 4.296875 -28.160156 4.296875 -27.203125 4.296875 -26.25 C 4.175781 -25.890625 4.296875 -25.652344 4.296875 -25.414062 C 4.296875 -22.429688 4.296875 -19.449219 4.296875 -16.585938 C 4.296875 -16.226562 4.296875 -15.867188 4.296875 -15.511719 C 4.296875 -15.035156 4.296875 -14.4375 4.296875 -13.960938 C 4.296875 -13.722656 4.296875 -13.363281 4.296875 -13.125 C 4.414062 -12.648438 4.414062 -12.171875 4.414062 -11.691406 C 4.414062 -11.097656 4.414062 -10.5 4.414062 -10.023438 C 4.535156 -9.546875 4.414062 -8.949219 4.535156 -8.472656 C 4.535156 -7.277344 4.535156 -5.964844 4.535156 -4.652344 C 4.535156 -3.816406 4.535156 -2.984375 4.535156 -2.148438 C 4.535156 -1.789062 4.535156 -1.550781 4.535156 -1.3125 C 4.535156 -1.074219 4.535156 -0.953125 4.535156 -0.714844 C 4.535156 -0.476562 4.535156 -0.238281 4.535156 0.121094 C 4.535156 0.121094 4.652344 0.238281 4.652344 0.238281 C 4.652344 0.238281 4.773438 0.238281 4.773438 0.238281 C 5.25 0.238281 5.726562 0.238281 6.203125 0.238281 C 7.277344 0.238281 8.472656 0.121094 9.664062 0.238281 C 10.023438 0.238281 10.378906 0.238281 10.738281 0.238281 C 10.738281 0.238281 10.859375 0.238281 10.859375 0.238281 C 10.859375 -0.476562 10.859375 -1.074219 10.859375 -1.671875 C 10.859375 -3.101562 10.859375 -4.414062 10.976562 -5.847656 C 10.976562 -6.5625 10.976562 -7.160156 10.976562 -7.875 C 10.976562 -7.996094 10.976562 -8.113281 10.976562 -8.234375 C 10.976562 -8.351562 10.976562 -8.472656 10.976562 -8.589844 C 10.976562 -10.140625 10.976562 -11.574219 10.976562 -13.003906 C 10.976562 -13.484375 10.976562 -13.960938 10.976562 -14.554688 C 10.859375 -15.035156 10.859375 -15.511719 10.859375 -15.988281 C 10.859375 -17.421875 10.859375 -18.851562 10.859375 -20.285156 C 10.859375 -21.597656 10.859375 -23.027344 10.859375 -24.460938 C 10.738281 -25.652344 10.738281 -26.847656 10.859375 -28.039062 C 10.859375 -28.398438 10.859375 -28.875 10.859375 -29.230469 C 10.859375 -29.828125 10.976562 -30.542969 10.976562 -31.140625 C 10.976562 -31.976562 10.976562 -32.8125 10.976562 -33.648438 C 10.976562 -34.242188 10.976562 -34.722656 11.097656 -35.316406 C 11.097656 -36.035156 11.097656 -36.867188 11.097656 -37.585938 C 11.097656 -37.703125 11.097656 -37.703125 11.097656 -37.941406 Z M 10.976562 -76.242188 C 11.097656 -76.242188 11.214844 -76.242188 11.335938 -76.242188 C 12.410156 -76.242188 13.484375 -76.242188 14.554688 -76.242188 C 14.914062 -76.242188 15.273438 -76.125 15.628906 -76.003906 C 16.109375 -75.886719 16.347656 -75.527344 16.703125 -75.167969 C 16.703125 -75.050781 16.824219 -74.929688 16.941406 -74.8125 C 17.179688 -74.453125 17.300781 -74.09375 17.421875 -73.738281 C 17.421875 -73.378906 17.539062 -73.019531 17.539062 -72.78125 C 17.539062 -71.589844 17.539062 -70.394531 17.539062 -69.324219 C 17.539062 -68.964844 17.539062 -68.488281 17.539062 -68.128906 C 17.539062 -67.652344 17.421875 -67.175781 17.421875 -66.578125 C 17.421875 -66.578125 17.421875 -66.457031 17.421875 -66.457031 C 17.421875 -65.625 17.421875 -64.90625 17.421875 -64.191406 C 17.421875 -63.476562 17.421875 -62.761719 17.539062 -62.042969 C 17.539062 -60.96875 17.539062 -60.015625 17.539062 -58.941406 C 17.539062 -58.585938 17.539062 -58.34375 17.539062 -57.988281 C 17.539062 -57.273438 17.539062 -56.554688 17.660156 -55.839844 C 17.660156 -55.242188 17.660156 -54.648438 17.660156 -54.050781 C 17.660156 -52.5 17.660156 -50.828125 17.660156 -49.277344 C 17.660156 -48.917969 17.660156 -48.5625 17.539062 -48.203125 C 17.539062 -47.964844 17.421875 -47.726562 17.421875 -47.488281 C 17.179688 -47.011719 16.941406 -46.535156 16.585938 -46.175781 C 16.347656 -45.816406 15.988281 -45.460938 15.628906 -45.222656 C 15.273438 -45.101562 14.914062 -44.980469 14.554688 -44.980469 C 14.078125 -44.980469 13.722656 -44.980469 13.242188 -44.980469 C 12.765625 -44.980469 12.289062 -44.980469 11.8125 -44.980469 C 11.574219 -44.980469 11.453125 -44.980469 11.214844 -44.980469 C 11.214844 -44.980469 11.097656 -44.980469 10.976562 -44.980469 C 10.976562 -45.222656 10.859375 -45.460938 10.859375 -45.699219 C 10.859375 -46.652344 10.859375 -47.605469 10.859375 -48.5625 C 10.976562 -49.277344 10.976562 -49.992188 10.976562 -50.710938 C 10.976562 -51.425781 10.976562 -52.140625 10.976562 -52.855469 C 11.097656 -53.335938 11.097656 -53.8125 11.097656 -54.289062 C 11.097656 -55.480469 11.097656 -56.675781 11.097656 -57.988281 C 11.097656 -58.464844 10.976562 -58.941406 10.976562 -59.417969 C 10.976562 -59.539062 10.976562 -59.539062 10.976562 -59.65625 C 10.859375 -61.210938 10.859375 -62.761719 10.859375 -64.3125 C 10.859375 -65.863281 10.859375 -67.292969 10.859375 -68.84375 C 10.976562 -69.441406 10.976562 -70.15625 10.976562 -70.753906 C 10.976562 -71.113281 10.976562 -71.46875 10.976562 -71.828125 C 11.097656 -72.425781 11.097656 -73.019531 11.097656 -73.617188 C 10.976562 -74.214844 10.976562 -74.8125 10.976562 -75.40625 C 10.976562 -75.644531 10.976562 -75.886719 10.976562 -76.125 C 10.976562 -76.125 10.976562 -76.125 10.976562 -76.242188 Z M 10.976562 -76.242188 "/></g></g></g><g fill="#000000" fill-opacity="1"><g transform="translate(68.078276, 84.455777)"><g><path d="M 4.296875 -83.402344 C 4.296875 -83.28125 4.296875 -83.164062 4.296875 -82.925781 C 4.296875 -82.566406 4.296875 -82.207031 4.296875 -81.851562 C 4.296875 -81.730469 4.296875 -81.613281 4.296875 -81.492188 C 4.296875 -80.894531 4.175781 -80.300781 4.175781 -79.824219 C 4.175781 -79.464844 4.296875 -79.105469 4.296875 -78.75 C 4.296875 -77.554688 4.296875 -76.242188 4.175781 -75.050781 C 4.175781 -72.542969 4.175781 -70.039062 4.296875 -67.53125 C 4.296875 -65.386719 4.296875 -63.355469 4.296875 -61.210938 C 4.296875 -60.253906 4.296875 -59.300781 4.175781 -58.34375 C 4.175781 -57.273438 4.175781 -56.199219 4.175781 -55.125 C 4.175781 -53.574219 4.175781 -52.023438 4.175781 -50.46875 C 4.175781 -49.636719 4.296875 -48.917969 4.296875 -48.085938 C 4.296875 -45.9375 4.296875 -43.789062 4.175781 -41.640625 C 4.175781 -40.925781 4.175781 -40.089844 4.175781 -39.375 C 4.175781 -38.0625 4.175781 -36.628906 4.296875 -35.316406 C 4.296875 -34.722656 4.296875 -34.125 4.296875 -33.527344 C 4.296875 -32.691406 4.296875 -31.976562 4.175781 -31.140625 C 4.175781 -30.542969 4.175781 -29.949219 4.175781 -29.351562 C 4.175781 -26.964844 4.175781 -24.460938 4.175781 -22.074219 C 4.296875 -20.640625 4.175781 -19.210938 4.296875 -17.777344 C 4.296875 -17.300781 4.296875 -16.824219 4.296875 -16.464844 C 4.296875 -15.152344 4.175781 -13.960938 4.296875 -12.765625 C 4.296875 -12.410156 4.296875 -11.929688 4.296875 -11.453125 C 4.296875 -10.261719 4.296875 -9.066406 4.296875 -7.875 C 4.296875 -7.875 4.296875 -7.875 4.296875 -7.753906 C 4.175781 -7.398438 4.175781 -6.921875 4.175781 -6.441406 C 4.175781 -4.535156 4.175781 -2.746094 4.175781 -0.835938 C 4.175781 -0.476562 4.175781 -0.238281 4.175781 0 C 4.175781 0 4.175781 0 4.296875 0 C 4.890625 0 5.609375 0 6.203125 0.121094 C 6.800781 0.121094 7.515625 0.121094 8.113281 0 C 8.949219 0 9.664062 0 10.5 0 C 10.5 0 10.617188 0 10.617188 0 C 10.617188 -0.121094 10.617188 -0.121094 10.617188 -0.121094 C 10.738281 -1.789062 10.617188 -3.460938 10.738281 -5.128906 C 10.738281 -6.324219 10.738281 -7.515625 10.738281 -8.710938 C 10.738281 -11.335938 10.738281 -13.960938 10.738281 -16.585938 C 10.738281 -18.253906 10.738281 -19.925781 10.738281 -21.597656 C 10.738281 -22.550781 10.738281 -23.625 10.617188 -24.699219 C 10.617188 -25.535156 10.617188 -26.367188 10.617188 -27.085938 C 10.738281 -28.636719 10.617188 -30.066406 10.738281 -31.617188 C 10.738281 -32.453125 10.738281 -33.289062 10.738281 -34.125 C 10.738281 -35.914062 10.738281 -37.703125 10.738281 -39.492188 C 10.738281 -41.285156 10.738281 -43.074219 10.738281 -44.863281 C 10.738281 -45.816406 10.738281 -46.652344 10.738281 -47.605469 C 10.738281 -47.84375 10.738281 -48.085938 10.738281 -48.324219 C 10.738281 -49.15625 10.738281 -50.113281 10.738281 -51.066406 C 10.738281 -51.664062 10.738281 -52.261719 10.617188 -52.738281 C 10.738281 -54.527344 10.617188 -56.199219 10.738281 -57.867188 C 10.738281 -59.0625 10.738281 -60.253906 10.738281 -61.449219 C 10.859375 -63 10.738281 -64.550781 10.738281 -66.101562 C 10.859375 -67.652344 10.738281 -69.203125 10.859375 -70.753906 C 10.859375 -71.230469 10.859375 -71.707031 10.859375 -72.1875 C 10.738281 -73.738281 10.859375 -75.167969 10.738281 -76.71875 C 10.738281 -77.4375 10.738281 -78.03125 10.738281 -78.75 C 10.738281 -79.582031 10.738281 -80.417969 10.617188 -81.253906 C 10.617188 -81.96875 10.617188 -82.566406 10.617188 -83.28125 C 10.617188 -83.402344 10.617188 -83.519531 10.617188 -83.519531 C 10.5 -83.519531 10.5 -83.519531 10.378906 -83.519531 C 10.023438 -83.519531 9.546875 -83.519531 9.1875 -83.519531 C 7.996094 -83.519531 6.800781 -83.519531 5.726562 -83.519531 C 5.371094 -83.519531 5.011719 -83.519531 4.535156 -83.402344 C 4.535156 -83.402344 4.414062 -83.402344 4.296875 -83.402344 Z M 4.296875 -83.402344 "/></g></g></g><g fill="#000000" fill-opacity="1"><g transform="translate(83.112046, 84.455777)"><g><path d="M 16.464844 -27.800781 C 16.585938 -27.5625 16.585938 -27.324219 16.585938 -27.203125 C 16.585938 -26.726562 16.585938 -26.25 16.703125 -25.773438 C 16.703125 -25.652344 16.703125 -25.652344 16.703125 -25.535156 C 16.703125 -25.054688 16.703125 -24.460938 16.824219 -23.984375 C 16.824219 -23.625 16.824219 -23.386719 16.824219 -23.027344 C 16.824219 -23.027344 16.824219 -23.027344 16.824219 -22.910156 C 16.824219 -22.671875 16.941406 -22.3125 16.941406 -21.953125 C 16.941406 -21.953125 16.941406 -21.835938 16.941406 -21.835938 C 16.941406 -21.359375 16.941406 -20.878906 17.0625 -20.523438 C 17.0625 -20.285156 17.0625 -20.046875 17.0625 -19.804688 C 17.0625 -19.6875 17.0625 -19.6875 17.0625 -19.566406 C 17.0625 -19.328125 17.0625 -19.089844 17.179688 -18.851562 C 17.179688 -18.613281 17.179688 -18.253906 17.179688 -17.898438 C 17.179688 -17.539062 17.179688 -17.300781 17.179688 -16.941406 C 17.300781 -16.464844 17.300781 -15.867188 17.300781 -15.390625 C 17.300781 -15.035156 17.300781 -14.675781 17.421875 -14.316406 C 17.421875 -14.199219 17.421875 -14.199219 17.421875 -14.078125 C 17.421875 -13.722656 17.421875 -13.363281 17.421875 -13.003906 C 17.539062 -12.765625 17.539062 -12.410156 17.539062 -12.050781 C 17.539062 -11.453125 17.539062 -10.859375 17.539062 -10.261719 C 17.660156 -9.425781 17.660156 -8.589844 17.660156 -7.753906 C 17.660156 -7.636719 17.660156 -7.636719 17.660156 -7.636719 C 17.660156 -7.277344 17.660156 -7.039062 17.777344 -6.800781 C 17.777344 -6.441406 17.777344 -6.085938 17.777344 -5.726562 C 17.777344 -5.488281 17.777344 -5.25 17.898438 -5.128906 C 17.898438 -4.773438 17.898438 -4.414062 17.898438 -4.058594 C 17.898438 -4.058594 17.898438 -3.9375 17.898438 -3.9375 C 18.015625 -3.578125 18.015625 -3.101562 18.015625 -2.746094 C 18.015625 -2.386719 18.015625 -2.148438 18.136719 -1.789062 C 18.136719 -1.550781 18.136719 -1.3125 18.136719 -1.074219 C 18.253906 -0.597656 18.375 -0.238281 18.375 0.121094 C 18.492188 0.121094 18.492188 0.121094 18.613281 0.121094 C 19.210938 0.121094 19.804688 0.121094 20.402344 0.121094 C 20.878906 0.121094 21.238281 0.121094 21.597656 0.121094 C 22.3125 0.121094 22.910156 0.121094 23.503906 0.121094 C 23.625 0.121094 23.742188 0.121094 23.984375 0.121094 C 24.222656 0.238281 24.460938 0.121094 24.699219 0.121094 C 24.699219 0.121094 24.816406 0 24.699219 0 C 24.699219 -0.238281 24.699219 -0.359375 24.699219 -0.597656 C 24.699219 -0.835938 24.699219 -1.074219 24.699219 -1.3125 C 24.578125 -1.550781 24.578125 -1.671875 24.578125 -1.789062 C 24.578125 -2.027344 24.460938 -2.386719 24.460938 -2.625 C 24.460938 -2.984375 24.460938 -3.460938 24.460938 -3.9375 C 24.339844 -4.414062 24.339844 -4.890625 24.339844 -5.371094 C 24.222656 -5.964844 24.222656 -6.5625 24.222656 -7.039062 C 24.222656 -7.398438 24.222656 -7.636719 24.222656 -7.996094 C 24.101562 -8.351562 24.101562 -8.828125 24.101562 -9.308594 C 24.101562 -10.023438 24.101562 -10.859375 24.101562 -11.691406 C 24.101562 -11.691406 24.101562 -11.8125 24.101562 -11.8125 C 24.101562 -12.171875 23.984375 -12.527344 23.984375 -12.886719 C 23.984375 -13.125 23.984375 -13.242188 23.984375 -13.484375 C 23.863281 -13.960938 23.863281 -14.316406 23.863281 -14.675781 C 23.863281 -15.035156 23.742188 -15.511719 23.742188 -15.988281 C 23.742188 -15.988281 23.742188 -15.988281 23.742188 -16.109375 C 23.742188 -16.226562 23.742188 -16.464844 23.742188 -16.824219 C 23.625 -17.0625 23.625 -17.300781 23.625 -17.539062 C 23.625 -17.898438 23.503906 -18.375 23.503906 -18.734375 C 23.503906 -19.089844 23.503906 -19.449219 23.386719 -19.804688 C 23.386719 -19.804688 23.386719 -19.925781 23.386719 -20.046875 C 23.386719 -20.402344 23.386719 -20.878906 23.265625 -21.359375 C 23.265625 -21.714844 23.265625 -21.953125 23.265625 -22.3125 C 23.265625 -22.3125 23.265625 -22.429688 23.265625 -22.429688 C 23.148438 -22.671875 23.148438 -22.910156 23.148438 -23.265625 C 23.148438 -23.386719 23.148438 -23.625 23.027344 -23.863281 C 23.027344 -24.222656 23.027344 -24.578125 23.027344 -24.9375 C 23.027344 -24.9375 23.027344 -24.9375 23.027344 -25.054688 C 22.910156 -25.414062 22.910156 -25.773438 22.789062 -26.25 C 22.789062 -26.488281 22.789062 -26.609375 22.789062 -26.847656 C 22.789062 -27.203125 22.671875 -27.5625 22.671875 -27.921875 C 22.671875 -28.398438 22.671875 -28.875 22.671875 -29.351562 C 22.550781 -29.710938 22.550781 -29.949219 22.550781 -30.304688 C 22.550781 -30.664062 22.550781 -31.023438 22.429688 -31.378906 C 22.429688 -31.738281 22.429688 -31.976562 22.429688 -32.335938 C 22.3125 -32.691406 22.3125 -33.050781 22.3125 -33.410156 C 22.3125 -33.765625 22.3125 -34.242188 22.3125 -34.722656 C 22.191406 -35.199219 22.191406 -35.554688 22.191406 -36.035156 C 22.191406 -36.390625 22.191406 -36.867188 22.074219 -37.226562 C 22.074219 -37.824219 22.074219 -38.300781 22.074219 -38.777344 C 21.953125 -39.015625 22.074219 -39.253906 21.953125 -39.613281 C 21.953125 -39.972656 21.953125 -40.449219 21.953125 -40.925781 C 21.835938 -41.285156 21.835938 -41.640625 21.835938 -42 C 21.835938 -42 21.835938 -42 21.835938 -42.117188 C 21.835938 -42.476562 21.714844 -42.835938 21.714844 -43.191406 C 21.714844 -43.667969 21.714844 -44.027344 21.714844 -44.503906 C 21.597656 -44.980469 21.714844 -45.578125 21.597656 -46.175781 C 21.597656 -46.414062 21.597656 -46.773438 21.597656 -47.128906 C 21.597656 -47.25 21.476562 -47.488281 21.476562 -47.605469 C 21.476562 -47.964844 21.476562 -48.203125 21.476562 -48.441406 C 21.359375 -49.039062 21.359375 -49.515625 21.359375 -50.113281 C 21.359375 -50.113281 21.359375 -50.230469 21.359375 -50.230469 C 21.359375 -50.46875 21.238281 -50.710938 21.238281 -51.066406 C 21.238281 -51.066406 21.238281 -51.1875 21.238281 -51.304688 C 21.238281 -51.542969 21.238281 -51.78125 21.117188 -52.140625 C 21.117188 -52.261719 21.117188 -52.378906 21.117188 -52.5 C 21.117188 -52.855469 21.117188 -53.214844 21.117188 -53.453125 C 21 -53.453125 21 -53.574219 21 -53.574219 C 21 -53.929688 21 -54.167969 21 -54.527344 C 20.878906 -54.765625 20.878906 -55.125 20.878906 -55.363281 C 20.878906 -55.601562 20.878906 -55.960938 20.878906 -56.199219 C 20.761719 -56.554688 20.761719 -56.914062 20.761719 -57.152344 C 20.761719 -57.273438 20.761719 -57.273438 20.761719 -57.273438 C 20.761719 -57.628906 20.640625 -57.988281 20.640625 -58.34375 C 20.640625 -58.824219 20.640625 -59.300781 20.640625 -59.65625 C 20.523438 -59.898438 20.640625 -60.253906 20.523438 -60.492188 C 20.523438 -60.730469 20.523438 -61.089844 20.523438 -61.328125 C 20.523438 -61.449219 20.523438 -61.449219 20.523438 -61.449219 C 20.402344 -61.804688 20.402344 -62.042969 20.402344 -62.402344 C 20.402344 -62.878906 20.402344 -63.355469 20.402344 -63.835938 C 20.402344 -63.953125 20.402344 -63.953125 20.402344 -63.953125 C 20.285156 -64.3125 20.285156 -64.667969 20.285156 -65.027344 C 20.164062 -65.386719 20.164062 -65.742188 20.164062 -66.101562 C 20.164062 -66.21875 20.164062 -66.21875 20.164062 -66.21875 C 20.164062 -66.578125 20.164062 -66.9375 20.164062 -67.175781 C 20.046875 -67.53125 20.046875 -67.890625 19.925781 -68.25 C 19.925781 -68.605469 19.925781 -68.964844 19.804688 -69.324219 C 19.804688 -69.5625 19.804688 -69.679688 19.804688 -69.917969 C 19.804688 -70.277344 19.6875 -70.636719 19.6875 -70.992188 C 19.566406 -71.351562 19.566406 -71.707031 19.566406 -72.066406 C 19.449219 -72.425781 19.449219 -72.902344 19.449219 -73.261719 C 19.328125 -73.378906 19.328125 -73.5 19.328125 -73.617188 C 19.328125 -73.855469 19.328125 -74.09375 19.328125 -74.332031 C 19.210938 -74.691406 19.210938 -74.929688 19.210938 -75.289062 C 19.210938 -75.527344 19.210938 -75.765625 19.089844 -76.125 C 19.089844 -76.601562 19.089844 -77.078125 19.089844 -77.554688 C 19.089844 -78.03125 19.089844 -78.390625 19.089844 -78.867188 C 18.972656 -79.34375 18.972656 -79.703125 18.972656 -80.179688 C 18.972656 -80.539062 18.972656 -80.777344 18.972656 -81.136719 C 18.851562 -81.492188 18.851562 -81.96875 18.851562 -82.449219 C 18.851562 -82.804688 18.734375 -83.164062 18.734375 -83.519531 C 18.492188 -83.519531 18.375 -83.519531 18.253906 -83.519531 C 18.136719 -83.519531 18.015625 -83.519531 17.898438 -83.519531 C 16.703125 -83.519531 15.511719 -83.519531 14.316406 -83.519531 C 14.316406 -83.519531 14.199219 -83.519531 14.078125 -83.519531 C 13.960938 -83.640625 13.839844 -83.640625 13.722656 -83.640625 C 13.003906 -83.640625 12.171875 -83.640625 11.453125 -83.519531 C 10.5 -83.519531 9.546875 -83.519531 8.589844 -83.519531 C 8.472656 -83.519531 8.351562 -83.519531 8.351562 -83.519531 C 8.351562 -83.519531 8.234375 -83.519531 8.234375 -83.519531 C 8.234375 -83.042969 8.234375 -82.566406 8.113281 -82.089844 C 7.996094 -81.613281 7.996094 -81.136719 7.996094 -80.65625 C 7.996094 -80.539062 7.996094 -80.539062 7.996094 -80.539062 C 7.875 -80.0625 7.753906 -79.582031 7.753906 -78.988281 C 7.753906 -78.75 7.753906 -78.390625 7.636719 -78.03125 C 7.636719 -77.792969 7.636719 -77.554688 7.636719 -77.316406 C 7.636719 -76.957031 7.515625 -76.601562 7.515625 -76.242188 C 7.515625 -75.765625 7.515625 -75.40625 7.515625 -75.050781 C 7.515625 -74.929688 7.515625 -74.929688 7.515625 -74.929688 C 7.398438 -74.574219 7.398438 -74.332031 7.398438 -74.09375 C 7.398438 -73.976562 7.398438 -73.976562 7.398438 -73.855469 C 7.277344 -73.5 7.277344 -73.140625 7.277344 -72.664062 C 7.277344 -72.542969 7.277344 -72.304688 7.277344 -72.1875 C 7.277344 -71.949219 7.160156 -71.707031 7.160156 -71.589844 C 7.160156 -71.113281 7.160156 -70.753906 7.039062 -70.277344 C 7.039062 -69.800781 7.039062 -69.324219 7.039062 -68.726562 C 7.039062 -68.25 7.039062 -67.890625 6.921875 -67.414062 C 6.921875 -67.054688 6.921875 -66.816406 6.921875 -66.578125 C 6.800781 -66.101562 6.800781 -65.503906 6.800781 -65.027344 C 6.800781 -64.550781 6.800781 -64.074219 6.800781 -63.59375 C 6.683594 -63.117188 6.683594 -62.761719 6.683594 -62.28125 C 6.683594 -62.28125 6.683594 -62.28125 6.683594 -62.164062 C 6.683594 -61.804688 6.5625 -61.449219 6.5625 -60.96875 C 6.5625 -60.730469 6.5625 -60.492188 6.441406 -60.253906 C 6.441406 -59.777344 6.441406 -59.417969 6.324219 -58.941406 C 6.324219 -58.824219 6.324219 -58.703125 6.324219 -58.585938 C 6.324219 -58.34375 6.324219 -58.105469 6.203125 -57.867188 C 6.203125 -57.511719 6.203125 -57.152344 6.203125 -56.792969 C 6.203125 -56.675781 6.203125 -56.675781 6.085938 -56.675781 C 6.085938 -56.4375 6.085938 -56.199219 6.085938 -55.960938 C 6.085938 -55.601562 6.085938 -55.242188 5.964844 -54.886719 C 5.964844 -54.886719 5.964844 -54.886719 5.964844 -54.765625 C 5.964844 -54.527344 5.964844 -54.289062 5.964844 -54.050781 C 5.847656 -53.691406 5.847656 -53.453125 5.847656 -53.09375 C 5.847656 -52.738281 5.847656 -52.378906 5.847656 -51.902344 C 5.847656 -51.664062 5.847656 -51.425781 5.726562 -51.1875 C 5.726562 -50.828125 5.726562 -50.589844 5.726562 -50.230469 C 5.726562 -49.992188 5.726562 -49.753906 5.726562 -49.515625 C 5.609375 -49.039062 5.609375 -48.5625 5.609375 -48.203125 C 5.609375 -47.84375 5.609375 -47.605469 5.609375 -47.367188 C 5.609375 -47.011719 5.488281 -46.652344 5.488281 -46.292969 C 5.488281 -45.9375 5.488281 -45.578125 5.488281 -45.222656 C 5.488281 -44.980469 5.371094 -44.742188 5.371094 -44.503906 C 5.371094 -44.265625 5.371094 -43.910156 5.371094 -43.667969 C 5.25 -43.074219 5.371094 -42.597656 5.25 -42 C 5.25 -41.402344 5.25 -40.925781 5.128906 -40.328125 C 5.128906 -39.972656 5.128906 -39.613281 5.128906 -39.136719 C 5.128906 -38.898438 5.011719 -38.660156 5.011719 -38.417969 C 5.011719 -37.941406 4.890625 -37.585938 4.890625 -37.105469 C 4.890625 -36.75 4.890625 -36.511719 4.890625 -36.152344 C 4.890625 -36.035156 4.890625 -36.035156 4.890625 -36.035156 C 4.773438 -35.675781 4.773438 -35.316406 4.773438 -34.960938 C 4.773438 -34.480469 4.652344 -33.886719 4.652344 -33.289062 C 4.652344 -32.929688 4.652344 -32.574219 4.652344 -32.214844 C 4.535156 -31.855469 4.535156 -31.5 4.535156 -31.140625 C 4.535156 -30.542969 4.535156 -29.828125 4.535156 -29.230469 C 4.535156 -28.636719 4.414062 -28.039062 4.414062 -27.324219 C 4.414062 -26.964844 4.414062 -26.609375 4.296875 -26.25 C 4.296875 -25.652344 4.296875 -25.054688 4.296875 -24.460938 C 4.296875 -24.460938 4.296875 -24.339844 4.296875 -24.339844 C 4.296875 -23.984375 4.175781 -23.742188 4.175781 -23.386719 C 4.175781 -23.148438 4.175781 -22.910156 4.175781 -22.671875 C 4.058594 -22.3125 4.058594 -21.953125 4.058594 -21.597656 C 4.058594 -21.597656 4.058594 -21.476562 4.058594 -21.476562 C 4.058594 -21.238281 3.9375 -20.878906 3.9375 -20.640625 C 3.9375 -20.285156 3.9375 -19.804688 3.9375 -19.328125 C 3.816406 -18.972656 3.9375 -18.613281 3.816406 -18.253906 C 3.816406 -17.898438 3.816406 -17.421875 3.699219 -16.941406 C 3.699219 -16.585938 3.699219 -16.226562 3.578125 -15.75 C 3.578125 -15.273438 3.578125 -14.914062 3.578125 -14.4375 C 3.578125 -14.078125 3.578125 -13.722656 3.578125 -13.363281 C 3.460938 -13.125 3.460938 -12.765625 3.460938 -12.410156 C 3.339844 -12.050781 3.339844 -11.691406 3.339844 -11.214844 C 3.339844 -11.097656 3.339844 -11.097656 3.222656 -10.976562 C 3.222656 -10.617188 3.222656 -10.140625 3.222656 -9.785156 C 3.222656 -9.546875 3.101562 -9.308594 3.101562 -9.1875 C 3.101562 -8.949219 3.101562 -8.710938 2.984375 -8.472656 C 2.984375 -8.351562 2.984375 -8.113281 2.984375 -7.996094 C 2.984375 -7.753906 2.863281 -7.515625 2.863281 -7.277344 C 2.863281 -6.800781 2.863281 -6.324219 2.863281 -5.847656 C 2.863281 -5.726562 2.863281 -5.726562 2.863281 -5.726562 C 2.746094 -5.25 2.746094 -4.890625 2.746094 -4.535156 C 2.746094 -4.296875 2.746094 -4.058594 2.746094 -3.816406 C 2.746094 -3.578125 2.625 -3.222656 2.625 -2.984375 C 2.625 -2.625 2.625 -2.265625 2.503906 -1.910156 C 2.503906 -1.910156 2.503906 -1.910156 2.503906 -1.789062 C 2.503906 -1.550781 2.503906 -1.3125 2.503906 -0.953125 C 2.503906 -0.953125 2.503906 -0.835938 2.386719 -0.714844 C 2.386719 -0.476562 2.386719 -0.238281 2.386719 0 C 2.503906 0 2.625 0 2.746094 0 C 3.816406 0 4.890625 -0.121094 6.085938 0 C 6.441406 0.121094 6.921875 0.121094 7.398438 0.121094 C 7.636719 0.121094 7.875 0.121094 8.113281 0.121094 C 8.113281 0.121094 8.234375 0.121094 8.234375 0.121094 C 8.351562 -0.121094 8.351562 -0.359375 8.351562 -0.597656 C 8.351562 -0.714844 8.351562 -0.953125 8.472656 -1.074219 C 8.472656 -1.191406 8.472656 -1.433594 8.472656 -1.671875 C 8.472656 -1.789062 8.589844 -2.027344 8.589844 -2.265625 C 8.589844 -2.503906 8.589844 -2.625 8.589844 -2.863281 C 8.710938 -3.222656 8.710938 -3.578125 8.710938 -3.9375 C 8.710938 -4.296875 8.710938 -4.535156 8.828125 -4.890625 C 8.828125 -5.25 8.828125 -5.726562 8.828125 -6.085938 C 8.949219 -6.441406 8.949219 -6.683594 8.949219 -7.039062 C 8.949219 -7.515625 8.949219 -7.875 9.066406 -8.351562 C 9.066406 -8.710938 9.066406 -9.066406 9.1875 -9.425781 C 9.1875 -9.664062 9.1875 -9.902344 9.1875 -10.023438 C 9.1875 -10.378906 9.308594 -10.738281 9.308594 -10.976562 C 9.308594 -11.097656 9.308594 -11.214844 9.308594 -11.335938 C 9.308594 -11.691406 9.308594 -12.171875 9.425781 -12.648438 C 9.425781 -13.242188 9.425781 -13.960938 9.425781 -14.554688 C 9.425781 -14.554688 9.425781 -14.675781 9.425781 -14.675781 C 9.425781 -15.035156 9.546875 -15.390625 9.546875 -15.75 C 9.546875 -15.988281 9.546875 -16.347656 9.546875 -16.703125 C 9.546875 -16.703125 9.546875 -16.703125 9.664062 -16.824219 C 9.664062 -17.0625 9.664062 -17.300781 9.664062 -17.539062 C 9.664062 -17.777344 9.664062 -18.015625 9.664062 -18.253906 C 9.785156 -18.613281 9.785156 -18.972656 9.785156 -19.328125 C 9.785156 -19.566406 9.785156 -19.925781 9.902344 -20.285156 C 9.902344 -20.523438 9.902344 -20.878906 9.902344 -21.238281 C 9.902344 -21.714844 10.023438 -22.191406 10.023438 -22.789062 C 10.023438 -22.910156 10.023438 -23.148438 10.140625 -23.386719 C 10.140625 -23.625 10.140625 -23.742188 10.140625 -23.984375 C 10.140625 -24.460938 10.261719 -25.054688 10.261719 -25.535156 C 10.378906 -25.890625 10.378906 -26.25 10.378906 -26.609375 C 10.378906 -26.847656 10.378906 -27.085938 10.378906 -27.324219 C 10.378906 -27.441406 10.378906 -27.5625 10.378906 -27.800781 C 12.410156 -27.921875 14.4375 -27.800781 16.464844 -27.800781 Z M 15.867188 -35.316406 C 15.273438 -35.199219 14.796875 -35.199219 14.316406 -35.078125 C 13.722656 -35.078125 13.125 -35.078125 12.648438 -35.078125 C 12.527344 -35.078125 12.410156 -35.078125 12.289062 -35.078125 C 12.050781 -34.960938 11.691406 -34.960938 11.335938 -34.960938 C 11.097656 -34.960938 10.976562 -34.960938 10.738281 -34.960938 C 10.617188 -35.078125 10.738281 -35.199219 10.738281 -35.316406 C 10.738281 -35.4375 10.738281 -35.554688 10.738281 -35.675781 C 10.738281 -36.035156 10.859375 -36.390625 10.859375 -36.75 C 10.859375 -36.988281 10.859375 -37.226562 10.859375 -37.464844 C 10.976562 -37.703125 10.976562 -38.0625 10.976562 -38.417969 C 10.976562 -38.777344 11.097656 -39.136719 11.097656 -39.492188 C 11.097656 -39.851562 11.097656 -40.210938 11.097656 -40.566406 C 11.214844 -41.042969 11.214844 -41.523438 11.214844 -42 C 11.214844 -42.355469 11.214844 -42.714844 11.335938 -43.074219 C 11.335938 -43.550781 11.335938 -43.910156 11.335938 -44.386719 C 11.335938 -44.742188 11.335938 -45.101562 11.453125 -45.460938 C 11.453125 -45.578125 11.453125 -45.9375 11.453125 -46.054688 C 11.574219 -46.535156 11.574219 -46.890625 11.574219 -47.25 C 11.574219 -47.726562 11.691406 -48.203125 11.691406 -48.679688 C 11.691406 -48.917969 11.8125 -49.15625 11.8125 -49.398438 C 11.8125 -49.515625 11.8125 -49.753906 11.8125 -49.875 C 11.929688 -50.230469 11.929688 -50.46875 11.929688 -50.710938 C 11.929688 -51.066406 11.929688 -51.304688 12.050781 -51.542969 C 12.050781 -51.542969 12.050781 -51.664062 12.050781 -51.664062 C 12.050781 -52.023438 12.050781 -52.378906 12.050781 -52.738281 C 12.050781 -53.214844 12.171875 -53.574219 12.171875 -53.929688 C 12.171875 -54.289062 12.171875 -54.527344 12.171875 -54.886719 C 12.289062 -55.242188 12.289062 -55.601562 12.289062 -55.960938 C 12.289062 -56.078125 12.410156 -56.316406 12.410156 -56.554688 C 12.410156 -57.03125 12.410156 -57.390625 12.410156 -57.75 C 12.527344 -58.105469 12.527344 -58.34375 12.527344 -58.464844 C 12.527344 -58.824219 12.527344 -58.941406 12.648438 -59.179688 C 12.648438 -59.417969 12.648438 -59.65625 12.648438 -59.777344 C 12.648438 -60.253906 12.765625 -60.613281 12.765625 -61.089844 C 12.765625 -61.328125 12.886719 -61.566406 12.886719 -61.804688 C 12.886719 -61.925781 12.886719 -62.164062 12.886719 -62.402344 C 13.003906 -62.761719 13.003906 -63.117188 13.003906 -63.476562 C 13.125 -63.714844 13.125 -63.953125 13.125 -64.074219 C 13.125 -64.429688 13.125 -64.667969 13.125 -64.90625 C 13.242188 -65.265625 13.242188 -65.503906 13.242188 -65.742188 C 13.242188 -65.742188 13.242188 -65.863281 13.242188 -65.863281 C 13.242188 -66.21875 13.242188 -66.578125 13.363281 -66.9375 C 13.363281 -67.414062 13.363281 -67.769531 13.484375 -68.25 C 13.484375 -68.25 13.484375 -68.367188 13.484375 -68.488281 C 13.484375 -68.964844 13.484375 -69.441406 13.484375 -70.039062 C 13.601562 -69.800781 13.601562 -69.5625 13.601562 -69.324219 C 13.601562 -69.082031 13.601562 -68.84375 13.722656 -68.605469 C 13.722656 -68.488281 13.722656 -68.25 13.722656 -68.011719 C 13.722656 -67.652344 13.722656 -67.292969 13.839844 -66.9375 C 13.839844 -66.578125 13.839844 -66.339844 13.839844 -66.101562 C 13.839844 -65.980469 13.839844 -65.980469 13.839844 -65.980469 C 13.960938 -65.625 13.960938 -65.386719 13.960938 -65.027344 C 13.960938 -64.667969 13.960938 -64.191406 14.078125 -63.714844 C 14.078125 -63.355469 14.078125 -63 14.078125 -62.761719 C 14.078125 -62.28125 14.078125 -61.925781 14.199219 -61.566406 C 14.199219 -61.328125 14.199219 -60.96875 14.199219 -60.730469 C 14.199219 -60.730469 14.199219 -60.730469 14.199219 -60.613281 C 14.316406 -60.253906 14.316406 -59.898438 14.316406 -59.539062 C 14.316406 -59.179688 14.316406 -58.824219 14.4375 -58.585938 C 14.4375 -58.226562 14.4375 -57.988281 14.4375 -57.75 C 14.4375 -57.390625 14.554688 -57.03125 14.554688 -56.675781 C 14.554688 -56.675781 14.554688 -56.675781 14.554688 -56.554688 C 14.554688 -56.199219 14.554688 -55.839844 14.554688 -55.363281 C 14.675781 -55.125 14.675781 -54.886719 14.675781 -54.648438 C 14.675781 -54.40625 14.675781 -54.167969 14.796875 -53.929688 C 14.796875 -53.453125 14.796875 -52.976562 14.796875 -52.617188 C 14.914062 -52.261719 14.914062 -52.023438 14.914062 -51.78125 C 14.914062 -51.425781 14.914062 -51.1875 15.035156 -50.828125 C 15.035156 -50.828125 15.035156 -50.710938 15.035156 -50.589844 C 15.035156 -50.230469 15.035156 -49.875 15.035156 -49.515625 C 15.152344 -48.800781 15.152344 -48.203125 15.152344 -47.605469 C 15.152344 -47.25 15.273438 -47.011719 15.273438 -46.652344 C 15.273438 -46.535156 15.273438 -46.414062 15.273438 -46.292969 C 15.273438 -45.699219 15.273438 -45.222656 15.390625 -44.742188 C 15.390625 -44.265625 15.390625 -43.789062 15.390625 -43.3125 C 15.390625 -42.953125 15.511719 -42.476562 15.511719 -42.117188 C 15.511719 -42.117188 15.511719 -42.117188 15.511719 -42 C 15.511719 -41.523438 15.511719 -40.925781 15.511719 -40.328125 C 15.511719 -39.851562 15.628906 -39.253906 15.628906 -38.777344 C 15.628906 -38.777344 15.628906 -38.660156 15.628906 -38.660156 C 15.628906 -38.0625 15.628906 -37.585938 15.75 -37.105469 C 15.75 -36.511719 15.867188 -36.035156 15.867188 -35.4375 C 15.867188 -35.4375 15.867188 -35.316406 15.867188 -35.316406 Z M 15.867188 -35.316406 "/></g></g></g><g clip-path="url(#1d7b9c91bd)"><path fill="#ffffff" d="M -16.382812 15.875 L 169.011719 15.875 L 169.011719 31.542969 L -16.382812 31.542969 Z M -16.382812 15.875 " fill-opacity="1" fill-rule="nonzero"/></g><g fill="#000000" fill-opacity="1"><g transform="translate(18.563279, 28.155719)"><g><path d="M 9.34375 -9.375 L 5.90625 0 L 3.625 0 L 0.1875 -9.375 L 2.203125 -9.375 L 4.78125 -1.921875 L 7.34375 -9.375 Z M 9.34375 -9.375 "/></g></g></g><g fill="#000000" fill-opacity="1"><g transform="translate(36.448335, 28.155719)"><g><path d="M 5.28125 0.09375 C 4.394531 0.09375 3.585938 -0.109375 2.859375 -0.515625 C 2.128906 -0.929688 1.546875 -1.503906 1.109375 -2.234375 C 0.679688 -2.960938 0.46875 -3.789062 0.46875 -4.71875 C 0.46875 -5.625 0.679688 -6.441406 1.109375 -7.171875 C 1.546875 -7.898438 2.128906 -8.46875 2.859375 -8.875 C 3.585938 -9.289062 4.394531 -9.5 5.28125 -9.5 C 6.164062 -9.5 6.972656 -9.289062 7.703125 -8.875 C 8.429688 -8.46875 9.003906 -7.898438 9.421875 -7.171875 C 9.847656 -6.441406 10.0625 -5.625 10.0625 -4.71875 C 10.0625 -3.789062 9.847656 -2.960938 9.421875 -2.234375 C 9.003906 -1.503906 8.425781 -0.929688 7.6875 -0.515625 C 6.957031 -0.109375 6.15625 0.09375 5.28125 0.09375 Z M 5.28125 -1.578125 C 5.84375 -1.578125 6.335938 -1.703125 6.765625 -1.953125 C 7.191406 -2.210938 7.523438 -2.578125 7.765625 -3.046875 C 8.015625 -3.523438 8.140625 -4.082031 8.140625 -4.71875 C 8.140625 -5.34375 8.015625 -5.890625 7.765625 -6.359375 C 7.523438 -6.828125 7.191406 -7.1875 6.765625 -7.4375 C 6.335938 -7.6875 5.84375 -7.8125 5.28125 -7.8125 C 4.707031 -7.8125 4.203125 -7.6875 3.765625 -7.4375 C 3.335938 -7.1875 3.003906 -6.828125 2.765625 -6.359375 C 2.523438 -5.890625 2.40625 -5.34375 2.40625 -4.71875 C 2.40625 -4.082031 2.523438 -3.523438 2.765625 -3.046875 C 3.003906 -2.578125 3.335938 -2.210938 3.765625 -1.953125 C 4.203125 -1.703125 4.707031 -1.578125 5.28125 -1.578125 Z M 5.28125 -1.578125 "/></g></g></g><g fill="#000000" fill-opacity="1"><g transform="translate(55.326961, 28.155719)"><g><path d="M 2.8125 -1.484375 L 5.890625 -1.484375 L 5.890625 0 L 0.921875 0 L 0.921875 -9.375 L 2.8125 -9.375 Z M 2.8125 -1.484375 "/></g></g></g><g fill="#000000" fill-opacity="1"><g transform="translate(69.828513, 28.155719)"><g><path d="M 2.78125 -9.375 L 2.78125 -3.5625 C 2.78125 -2.9375 2.941406 -2.453125 3.265625 -2.109375 C 3.597656 -1.773438 4.066406 -1.609375 4.671875 -1.609375 C 5.273438 -1.609375 5.742188 -1.773438 6.078125 -2.109375 C 6.410156 -2.453125 6.578125 -2.9375 6.578125 -3.5625 L 6.578125 -9.375 L 8.46875 -9.375 L 8.46875 -3.578125 C 8.46875 -2.785156 8.296875 -2.113281 7.953125 -1.5625 C 7.609375 -1.007812 7.144531 -0.59375 6.5625 -0.3125 C 5.988281 -0.0390625 5.347656 0.09375 4.640625 0.09375 C 3.941406 0.09375 3.304688 -0.0390625 2.734375 -0.3125 C 2.171875 -0.59375 1.722656 -1.007812 1.390625 -1.5625 C 1.066406 -2.113281 0.90625 -2.785156 0.90625 -3.578125 L 0.90625 -9.375 Z M 2.78125 -9.375 "/></g></g></g><g fill="#000000" fill-opacity="1"><g transform="translate(87.525594, 28.155719)"><g><path d="M 8.9375 0 L 7.0625 0 L 2.8125 -6.421875 L 2.8125 0 L 0.921875 0 L 0.921875 -9.375 L 2.8125 -9.375 L 7.0625 -2.9375 L 7.0625 -9.375 L 8.9375 -9.375 Z M 8.9375 0 "/></g></g></g><g fill="#000000" fill-opacity="1"><g transform="translate(105.732889, 28.155719)"><g><path d="M 7.296875 -9.375 L 7.296875 -7.859375 L 4.8125 -7.859375 L 4.8125 0 L 2.921875 0 L 2.921875 -7.859375 L 0.421875 -7.859375 L 0.421875 -9.375 Z M 7.296875 -9.375 "/></g></g></g><g fill="#000000" fill-opacity="1"><g transform="translate(121.818786, 28.155719)"><g><path d="M 6.671875 -1.78125 L 2.9375 -1.78125 L 2.328125 0 L 0.34375 0 L 3.71875 -9.375 L 5.90625 -9.375 L 9.28125 0 L 7.28125 0 Z M 6.15625 -3.28125 L 4.8125 -7.203125 L 3.453125 -3.28125 Z M 6.15625 -3.28125 "/></g></g></g><g clip-path="url(#d35492cbed)"><path fill="#000000" d="M 3.589844 85.425781 C 3.636719 85.207031 3.679688 84.992188 3.738281 84.78125 L 3.921875 84.160156 C 4.023438 83.75 4.203125 83.363281 4.328125 82.984375 C 4.660156 82.234375 5.007812 81.539062 5.425781 80.886719 C 5.863281 80.253906 6.3125 79.640625 6.847656 79.101562 C 7.902344 78.015625 9.144531 77.117188 10.617188 76.453125 L 10.894531 76.320312 L 11.179688 76.210938 C 11.371094 76.144531 11.566406 76.058594 11.765625 75.988281 C 12.164062 75.878906 12.578125 75.714844 13.007812 75.617188 C 13.441406 75.507812 13.886719 75.421875 14.351562 75.34375 C 14.359375 75.34375 14.363281 75.339844 14.367188 75.339844 C 14.917969 75.253906 15.066406 74.507812 14.574219 74.238281 C 14.113281 73.980469 13.613281 73.78125 13.097656 73.625 C 12.589844 73.46875 12.058594 73.402344 11.515625 73.332031 C 11.246094 73.296875 10.976562 73.308594 10.703125 73.304688 L 10.289062 73.304688 C 10.152344 73.308594 10.015625 73.332031 9.878906 73.34375 C 7.671875 73.546875 5.527344 74.636719 3.953125 76.273438 C 3.160156 77.089844 2.535156 78.0625 2.054688 79.085938 C 1.589844 80.121094 1.328125 81.234375 1.234375 82.34375 C 1.222656 82.621094 1.230469 82.898438 1.230469 83.175781 C 1.234375 83.3125 1.230469 83.449219 1.242188 83.585938 C 1.253906 83.722656 1.273438 83.859375 1.292969 83.996094 C 1.332031 84.265625 1.359375 84.535156 1.414062 84.800781 C 1.476562 85.0625 1.542969 85.324219 1.625 85.578125 C 1.761719 85.992188 1.925781 86.394531 2.125 86.773438 C 2.429688 87.355469 3.304688 87.210938 3.390625 86.558594 C 3.445312 86.167969 3.507812 85.792969 3.589844 85.425781 Z M 146.375 86.558594 C 146.464844 87.210938 147.335938 87.355469 147.644531 86.773438 C 147.839844 86.394531 148.007812 85.992188 148.144531 85.578125 C 148.226562 85.324219 148.292969 85.0625 148.351562 84.800781 C 148.410156 84.535156 148.433594 84.265625 148.476562 83.996094 C 148.492188 83.859375 148.515625 83.722656 148.527344 83.585938 C 148.539062 83.449219 148.535156 83.3125 148.535156 83.175781 C 148.539062 82.898438 148.542969 82.621094 148.535156 82.34375 C 148.441406 81.234375 148.175781 80.121094 147.710938 79.085938 C 147.234375 78.0625 146.609375 77.089844 145.8125 76.273438 C 144.242188 74.636719 142.09375 73.546875 139.890625 73.34375 C 139.753906 73.332031 139.617188 73.308594 139.480469 73.304688 L 139.066406 73.304688 C 138.792969 73.308594 138.523438 73.296875 138.25 73.332031 C 137.710938 73.402344 137.179688 73.46875 136.667969 73.625 C 136.152344 73.78125 135.65625 73.980469 135.191406 74.238281 C 134.703125 74.507812 134.847656 75.253906 135.402344 75.339844 C 135.40625 75.339844 135.410156 75.34375 135.414062 75.34375 C 135.882812 75.421875 136.328125 75.507812 136.761719 75.617188 C 137.191406 75.714844 137.605469 75.878906 138.003906 75.988281 C 138.203125 76.058594 138.398438 76.144531 138.589844 76.210938 L 138.875 76.320312 L 139.152344 76.453125 C 140.625 77.117188 141.863281 78.015625 142.921875 79.101562 C 143.457031 79.640625 143.90625 80.253906 144.34375 80.886719 C 144.761719 81.539062 145.109375 82.234375 145.4375 82.984375 C 145.5625 83.363281 145.746094 83.75 145.84375 84.160156 L 146.03125 84.78125 C 146.089844 84.992188 146.132812 85.207031 146.179688 85.425781 C 146.257812 85.792969 146.320312 86.167969 146.375 86.558594 Z M 74.34375 111.988281 C 62.660156 111.988281 51.054688 109.574219 39.851562 104.8125 C 29.007812 100.207031 18.511719 93.394531 8.65625 84.5625 C 7.910156 83.894531 7.84375 82.742188 8.507812 81.988281 C 9.167969 81.238281 10.3125 81.167969 11.058594 81.835938 C 30.40625 99.175781 52.289062 108.34375 74.34375 108.34375 C 96.582031 108.34375 118.632812 99.027344 138.105469 81.402344 C 138.851562 80.730469 139.992188 80.792969 140.65625 81.542969 C 141.324219 82.292969 141.261719 83.445312 140.519531 84.117188 C 130.605469 93.089844 120.039062 100.011719 109.113281 104.695312 C 97.820312 109.535156 86.121094 111.988281 74.34375 111.988281 " fill-opacity="1" fill-rule="nonzero"/></g></svg>